<svg xmlns="http://www.w3.org/2000/svg" xmlns:xlink="http://www.w3.org/1999/xlink" width="2048" height="2048"><g><svg xmlns="http://www.w3.org/2000/svg" xmlns:xlink="http://www.w3.org/1999/xlink" width="2048" height="2048"/><svg xmlns="http://www.w3.org/2000/svg" width="2048" height="2048" version="1.0" viewBox="0 0 2048 2048"><g fill="#feffff" transform="matrix(.1 0 0 -.1 0 2048)"><path d="M0 10240V0h20480v20480H0V10240z"/></g></svg><svg xmlns="http://www.w3.org/2000/svg" width="2048" height="2048" version="1.0" viewBox="0 0 2048 2048"><g fill="#b6f3ff" transform="matrix(.1 0 0 -.1 0 2048)"><path d="m4708 11880 2-1430H1840V7170l3060-1c1683-1 3066-2 3073-3 9-1 12 620 13 3072v3072H4705l3-1430zm5292-445v-85h54c29 0 68 3 85 6 31 7 31 7 31 85v79h-170v-85zm1248 58c-2-16-2-265 0-555l2-528h170v330l48 2c26 0 61 2 77 3 17 2 37-1 45-5 9-5 83-81 165-169l148-161h94c84 0 93 2 93 18 0 11-9 27-20 37s-17 22-14 27c3 4 1 7-4 6-6-2-36 27-69 64-32 36-97 109-145 161-49 52-88 98-88 102 0 10 35 50 149 175 207 225 213 233 185 244-9 3-53 6-98 6h-82l-63-72c-35-40-105-117-156-170l-92-98h-173v610h-84c-85 0-85 0-88-27zm3562-430c0-279 5-476 11-503 12-52 49-104 93-131 26-16 50-19 144-19h112v159l-92 3-93 3-3 473-2 472h-170v-457zm-1648-40c3-482 3-488 25-523 12-19 37-46 55-60 31-24 41-25 208-30 96-3 185-4 198-2 21 3 22 8 22 82v80l-167 2-168 3-3 252-2 253 167 2 168 3 3 83 3 82h-341v260h-171l3-487zm-4300 345 3-83 218-3 217-2v-434c0-238 2-435 4-437s41-3 85-1l81 4v868l218 2 217 3 3 83 3 82H8859l3-82zm4918-436c0-285 2-521 4-523s41-3 85-1l81 4v428h628l7 55c3 31 4 69 0 85-8 34 22 32-412 31l-223-1v270h790v170h-960v-518zm-3780-102v-420h170v840h-170v-420zm429 410c-44-13-77-40-109-88-30-45-30-45-30-318 0-168 4-284 11-301 12-33 64-90 99-108 19-9 112-13 375-15 193-2 356-2 363-2 8 2 12 25 12 82v80l-342 2-343 3v500l336 3 336 2 7 54c3 30 3 68 0 85l-6 31-342-1c-187 0-353-4-367-9zm1851-12c-25-13-59-42-77-66l-33-44v-287c0-288 0-288 26-327 28-43 58-70 89-83 11-5 182-10 380-12l360-4 3 83 3 82h-692l3 88 3 87h680l3 159c3 182-8 233-61 283-65 62-70 63-369 63-264 0-275-1-318-22zm570-236v-89l-258-2-257-2 3 78c2 43 5 84 7 91 3 9 63 12 255 12h250v-88zm2519 238c-48-25-97-82-104-122-3-18-5-157-3-308 3-273 3-275 27-307 14-18 41-44 60-57 35-24 41-24 305-29 148-2 288 0 310 5 50 11 97 46 127 94 21 35 22 48 26 293 4 282-1 317-50 376-58 71-77 75-387 74-251 0-278-2-311-19zm574-287c6-149 2-347-8-363-7-11-462-14-489-4-14 5-16 37-16 255v249h507l6-137zm217 297c0-11 6-27 165-430 53-135 108-276 122-315 14-38 29-75 34-80 9-12 128-10 140 2 4 4 35 71 67 148 50 117 101 236 175 408 12 27 27 36 27 16 0-6 20-52 44-102 77-159 195-423 202-451 3-14 9-26 13-27 52-6 133-3 140 5 4 6 19 43 33 81 14 39 80 214 146 390s122 329 124 340c3 19-3 20-82 23l-85 2-28-77c-16-43-46-123-67-178-62-162-87-228-97-260-10-30-10-30-36 21-14 29-56 119-92 200-37 82-83 182-103 222l-36 73-90-3-90-3-57-130c-31-71-63-143-70-160-7-16-34-79-60-138-26-60-49-105-52-100-2 4-30 71-60 148-31 77-78 194-105 260l-48 120-87 3c-56 2-87-1-87-8z"/></g></svg><svg xmlns="http://www.w3.org/2000/svg" width="2048" height="2048" version="1.0" viewBox="0 0 2048 2048"><g fill="#d6e2ed" transform="matrix(.1 0 0 -.1 0 2048)"><path d="M4700 13300c0-6 11-8 28-4 39 10 40 14 4 14-18 0-32-5-32-10zm2238 3c78-2 206-2 285 0 78 1 14 3-143 3s-221-2-142-3zm680 0c12-2 32-2 45 0 12 2 2 4-23 4s-35-2-22-4zm357-368c0-206 3-375 8-375 4 0 7 169 7 375s-3 375-7 375c-5 0-8-169-8-375zm-3263 325c0-14 2-19 5-12 2 6 2 18 0 25-3 6-5 1-5-13zm3258-828c0-67 4-112 10-112 10 0 5 208-5 218-3 3-5-45-5-106zm3-187c0-27 2-38 4-22 2 15 2 37 0 50-2 12-4 0-4-28zm0-125c0-25 2-35 4-22 2 12 2 32 0 45-2 12-4 2-4-23zm0-115c0-27 2-38 4-22 2 15 2 37 0 50-2 12-4 0-4-28zm-1-160c0-44 3-89 7-100s6 18 4 65c-6 116-11 131-11 35zm-2-205c0-22 5-40 10-40 6 0 10 18 10 40s-4 40-10 40c-5 0-10-18-10-40zm2-654 4-534-46-6c-56-8-3157-7-3187 0-12 3-24 13-26 23-4 14-5 14-6-1-1-17-76-18-1436-18H1840V7170l3060-1c1683-1 3066-2 3073-3 9-1 12 442 14 2177 2 1532 0 2177-8 2177-7 0-9-161-7-534zm2028 449v-85h54c29 0 68 3 85 6 31 7 31 7 31 85v79h-170v-85zm1248 58c-2-16-2-265 0-555l2-528h170v330l48 2c26 0 61 2 77 3 17 2 37-1 45-5 9-5 83-81 165-169l148-161h94c84 0 93 2 93 18 0 11-9 27-20 37s-17 22-14 27c3 4 1 7-4 6-6-2-36 27-69 64-32 36-97 109-145 161-49 52-88 98-88 102 0 10 35 50 149 175 207 225 213 233 185 244-9 3-53 6-98 6h-82l-63-72c-35-40-105-117-156-170l-92-98h-173v610h-84c-85 0-85 0-88-27zm3562-430c0-279 5-476 11-503 12-52 49-104 93-131 26-16 50-19 144-19h112v159l-92 3-93 3-3 473-2 472h-170v-457zm-1648-40c3-482 3-488 25-523 12-19 37-46 55-60 31-24 41-25 208-30 96-3 185-4 198-2 21 3 22 8 22 82v80l-167 2-168 3-3 252-2 253 167 2 168 3 3 83 3 82h-341v260h-171l3-487zm-4300 345 3-83 218-3 217-2v-434c0-238 2-435 4-437s41-3 85-1l81 4v868l218 2 217 3 3 83 3 82H8859l3-82zm4918-436c0-285 2-521 4-523s41-3 85-1l81 4v428h628l7 55c3 31 4 69 0 85-8 34 22 32-412 31l-223-1v270h790v170h-960v-518zm-3780-102v-420h170v840h-170v-420zm429 410c-44-13-77-40-109-88-30-45-30-45-30-318 0-168 4-284 11-301 12-33 64-90 99-108 19-9 112-13 375-15 193-2 356-2 363-2 8 2 12 25 12 82v80l-342 2-343 3v500l336 3 336 2 7 54c3 30 3 68 0 85l-6 31-342-1c-187 0-353-4-367-9zm1851-12c-25-13-59-42-77-66l-33-44v-287c0-288 0-288 26-327 28-43 58-70 89-83 11-5 182-10 380-12l360-4 3 83 3 82h-692l3 88 3 87h680l3 159c3 182-8 233-61 283-65 62-70 63-369 63-264 0-275-1-318-22zm570-236v-89l-258-2-257-2 3 78c2 43 5 84 7 91 3 9 63 12 255 12h250v-88zm2519 238c-48-25-97-82-104-122-3-18-5-157-3-308 3-273 3-275 27-307 14-18 41-44 60-57 35-24 41-24 305-29 148-2 288 0 310 5 50 11 97 46 127 94 21 35 22 48 26 293 4 282-1 317-50 376-58 71-77 75-387 74-251 0-278-2-311-19zm574-287c6-149 2-347-8-363-7-11-462-14-489-4-14 5-16 37-16 255v249h507l6-137zm217 297c0-11 6-27 165-430 53-135 108-276 122-315 14-38 29-75 34-80 9-12 128-10 140 2 4 4 35 71 67 148 50 117 101 236 175 408 12 27 27 36 27 16 0-6 20-52 44-102 77-159 195-423 202-451 3-14 9-26 13-27 52-6 133-3 140 5 4 6 19 43 33 81 14 39 80 214 146 390s122 329 124 340c3 19-3 20-82 23l-85 2-28-77c-16-43-46-123-67-178-62-162-87-228-97-260-10-30-10-30-36 21-14 29-56 119-92 200-37 82-83 182-103 222l-36 73-90-3-90-3-57-130c-31-71-63-143-70-160-7-16-34-79-60-138-26-60-49-105-52-100-2 4-30 71-60 148-31 77-78 194-105 260l-48 120-87 3c-56 2-87-1-87-8z"/></g></svg><svg xmlns="http://www.w3.org/2000/svg" width="2048" height="2048" version="1.0" viewBox="0 0 2048 2048"><g fill="#afb1e2" transform="matrix(.1 0 0 -.1 0 2048)"><path d="M10007 11514c-4-4-7-40-7-81v-73h80c79 0 79 0 85 33 4 18 5 53 3 77l-3 45-75 3c-42 1-79 0-83-4zm1243-549v-556l83 3 82 3 3 168 2 167h168l65-67c35-38 106-114 158-170l94-103h92c76 0 93 3 93 15 0 8-64 85-142 171-189 207-197 217-198 230 0 11 57 76 268 307 39 44 72 85 72 92 0 9-28 15-88 20l-89 7-55-59c-31-32-77-83-104-113-27-31-73-81-103-113l-54-57h-177l-2 303-3 302-82 3-83 3v-556zm3569 533c-2-13-4-228-4-478 0-455 0-455 24-503 12-26 39-60 59-75 34-26 41-27 151-27h116v150l-90 5-90 5-5 470-5 470-76 3c-73 3-77 2-80-20zm-1657-470c3-519 1-502 57-561 49-54 65-57 266-57h186l-3 78-3 77-166 3c-164 2-167 3-171 25-2 12-2 127 0 255l4 232h159c159 0 159 0 169 26 6 14 10 49 10 78 0 67 4 66-197 66h-152l2 128 2 127-83 3-83 3 3-483zm-4297 390c-3-18-4-44-1-58 2-14 5-35 5-47 1-21 6-23 64-23 35 0 132-3 215-7l152-6v-867h170v870h428l7 65c12 117 70 105-520 105h-514l-6-32zm4922 25c-4-3-7-237-7-520v-513h170v430h299c165 0 306 3 315 6 13 5 16 22 16 85v79h-631l3 138 3 137 361-4c198-2 375 0 393 4 32 7 32 7 29 83l-3 77-471 3c-259 1-474-1-477-5zm-3782-203c-2-4-3-191-2-416l2-409 76-3c76-3 76-3 83 29 3 17 6 204 6 414 0 368-1 383-19 388-30 7-141 6-146-3zm448 1c-41-5-60-14-89-41-70-67-74-83-74-375 0-251 1-262 23-305 12-24 39-58 60-74l39-31 369-3 369-3v161h-689l-3 28c-2 15-2 129 0 254l3 228 337 2 337 3 3 74c2 53-1 77-10 82-15 10-597 9-675 0zm1861 0c-44-11-92-50-120-97-24-40-24-44-24-313 0-295 1-302 59-364 52-57 50-57 434-57h354l7 55c3 31 3 67 0 80-6 25-6 25-348 27l-341 3v170l341 3 341 2 6 145c8 205-10 266-95 323-42 27-42 27-312 29-149 0-285-2-302-6zm540-192c3-17 6-58 6-90v-59h-530v74c0 41 3 81 6 90 5 14 38 16 259 16h253l6-31zm2537 191c-48-21-100-71-116-113-14-36-15-83-13-319 3-276 3-276 34-315 17-21 46-48 64-60 32-23 39-23 324-23 287 0 292 0 330 23 50 31 96 99 97 146 1 20 1 145 2 278 0 241 0 241-27 287-15 26-45 59-68 73-41 27-41 27-322 30-174 2-290-1-305-7zm557-395c1-126 0-240-3-252-5-23-5-23-259-23-194 0-255 3-258 13-3 6-3 121 0 255l4 242 257-2 256-3 3-230zm217 394c-3-3 27-84 64-180 141-356 238-605 245-626s14-23 76-23h68l52 123c29 67 60 140 70 162s39 90 65 150c25 61 51 122 58 138 12 26 27 37 27 17 0-5 18-47 39-92 43-90 159-350 197-438 23-55 23-55 92-58l68-3 63 168c34 92 82 220 107 283 24 63 66 174 93 245l48 130-56 8c-31 4-69 6-85 5-31-3-21 16-117-238-28-74-61-162-74-195-12-33-26-70-30-82-3-13-9-23-13-23-7 0-78 149-154 322-18 40-49 105-68 143l-35 70h-176l-75-170c-41-93-93-214-116-268-23-53-45-94-49-90-8 8-102 234-172 413-23 58-46 108-52 113-12 9-155 6-160-4zm-11280-799-3040-5V7170h6132l6 143c9 181 9 3049 1 3100-6 33-10 37-33 35-14-2-1394-5-3066-8z"/></g></svg><svg xmlns="http://www.w3.org/2000/svg" width="2048" height="2048" version="1.0" viewBox="0 0 2048 2048"><g fill="#96ace2" transform="matrix(.1 0 0 -.1 0 2048)"><path d="M10010 11440v-80h150l1 53c0 28 2 61 4 72 5 28-11 35-87 35h-68v-80zm1247 74c-8-8-9-1031-1-1071 7-33 7-33 80-33h74v148c0 204-6 192 97 192 97 0 64 25 291-222l107-118 89 3c57 1 91 6 93 14 2 6-67 89-154 185s-166 184-176 195c-20 23-26 16 251 316 45 49 82 95 82 102 0 10-24 14-91 17l-91 3-86-94c-48-52-118-128-156-168l-69-73h-187v610h-73c-41 0-76-3-80-6zm3563-466c0-280 4-487 10-507 11-38 60-95 102-117 18-9 60-14 128-14h100v160h-85c-61 0-87 4-91 13-2 7-6 220-7 472l-2 460-77 3-78 3v-473zm-1656 448c-3-7-4-224-2-482 3-509 2-498 60-550 53-49 76-54 261-54h175l7 71c4 39 3 75-2 80s-83 10-173 11l-165 3-2 240c-2 140 1 246 7 255 7 12 39 15 166 17 86 2 158 4 160 5 1 2 4 35 6 73l3 70-150 2c-215 4-197-8-195 126 1 62 1 120 1 130-1 15-12 17-76 17-55 0-77-4-81-14zm-4286-51c-5-5-8-41-8-81v-74l218-2 217-3 3-438 2-438 78 3 77 3 3 438 2 437h430v150h-388c-214 0-442 3-508 6-65 4-122 3-126-1zm4916-4c-2-2-4-236-4-518v-514l78 3 77 3 3 218 2 217h630v160h-630v280l392 2 392 3 4 67c3 50 0 69-10 73-17 5-928 11-934 6zm3557-404c-44-117-90-238-101-269-12-32-25-58-29-58-9 0-35 53-123 250-38 85-83 183-101 218l-32 63-89-3-90-3-63-145c-35-80-87-198-115-263s-55-114-59-110c-8 8-109 247-179 423l-37 95-87 3-86 3 19-48c10-26 40-102 66-168s89-227 141-358 94-242 94-247c0-6 31-10 68-10h68l129 300c70 165 131 300 135 300 3 0 17-24 29-52 25-56 26-58 149-328 43-96 82-185 86-197 7-21 14-23 74-23h67l140 372c77 204 147 389 154 409 8 21 13 40 10 42-2 3-38 7-81 10l-76 5-81-211zm-7341-212v-415h150v338c0 187 3 373 6 415l7 77h-163v-415zm395 403c-33-18-76-61-92-93-13-24-16-77-17-305-1-318 1-328 89-388l48-32 356 2 356 3v150l-345 5-345 5v247c0 136 4 250 9 255 4 4 158 9 342 11l334 3v149h-357c-242-1-364-4-378-12zm1870-7c-41-25-82-70-94-104-7-17-11-130-11-291 0-255 1-264 23-306 12-24 40-57 61-74l38-31 364-3 364-3v161l-342 2-343 3-3 88-3 87h691v170c0 109-4 179-12 197-22 51-49 83-88 103-36 19-60 20-327 20-264 0-291-2-318-19zm577-147c4-3 8-43 8-90v-84h-531l3 88 3 87 45 6c50 8 458 1 472-7zm2523 156c-33-14-95-84-105-121-6-18-10-149-10-289 0-227 2-259 19-295 22-47 64-89 104-104 44-17 569-15 610 2 33 14 106 88 108 110 1 6 3 23 5 37 9 65 4 519-6 545-18 47-50 85-90 105-36 19-59 20-327 19-158 0-297-4-308-9zm565-156c7-7 9-100 8-255l-3-244h-520l-3 230c-1 127 0 240 3 252 4 15 14 23 38 26 64 9 467 1 477-9zm-11527-642c-6-4 30-6 80-6 77 2 265-22 201-25-29-1-38-27-19-54 18-26 19-68 3-86-10-11-10-14 0-18 18-7 15-103-4-142-11-22-15-48-12-76 3-24 1-48-5-54-7-7-6-15 3-26 11-13 13-75 11-301-1-181 2-284 8-284s8-120 5-337c-2-186-6-504-9-708-2-203-7-410-11-460-8-102-11-169-13-268 0-38-4-66-8-64-5 3-9-32-10-77-2-44-7-82-13-84-5-2-10-21-10-43 0-21-4-39-8-39s-8-19-7-42c1-35 6-45 26-55 19-10 386-13 1692-13h1667v3270H6203c-978 0-1783-4-1790-8zM1854 7640c0-113 2-159 3-102 2 56 2 148 0 205-1 56-3 10-3-103z"/></g></svg><svg xmlns="http://www.w3.org/2000/svg" width="2048" height="2048" version="1.0" viewBox="0 0 2048 2048"><g fill="#89abe3" transform="matrix(.1 0 0 -.1 0 2048)"><path d="M10010 11440v-80h150v75c0 71-1 75-22 76-13 1-47 3-75 5l-53 4v-80zm1250-475v-555h150l2 168 3 167 91 3c91 3 91 3 127-38 35-40 224-246 260-282 14-15 33-18 102-18 77 0 85 2 85 19s-117 153-274 321c-29 30-56 61-60 68-5 8 41 65 131 163 155 169 213 237 213 250 0 5-42 9-93 9h-92l-75-82c-41-46-111-120-154-165l-80-83h-186v299c0 341 10 311-97 311h-53v-555zm3564 542c-2-7-3-230-2-494l3-481 31-39c59-73 84-83 201-83h104l-3 78-3 77-80 3c-61 2-83 7-92 19-10 13-13 123-13 469 0 510 9 464-86 464-36 0-56-5-60-13zm-1657-3c-10-10-8-824 2-912 10-84 39-130 101-162 35-18 59-20 215-20h176l-3 78-3 77-165 5-165 5v510l168 3 167 2v150l-167 2-168 3-5 130-5 130-70 3c-39 1-74 0-78-4zm-4297-139v-75l218-2 217-3 3-437 2-438h150l2 83c1 45 3 96 4 112 1 17 3 177 3 358l1 327h430v150H8870v-75zm4920-440v-515h147l8 220 7 220h628v160h-643l6 98c4 53 7 116 7 140v42h780v150h-940v-515zm3561 110c-44-115-89-236-101-267-12-32-25-58-29-58-9 0-20 23-126 255-45 99-93 201-106 228l-23 47h-175l-21-47c-12-27-41-93-65-148-118-271-145-330-153-333-5-1-23 32-40 75s-64 161-106 263l-74 185-85 3-85 3 79-203c44-112 116-294 159-405 44-111 80-207 80-213 0-15 127-13 137 3 8 13 253 579 253 585 0 37 157-290 258-536l26-63 65 3c65 3 65 3 82 48 224 592 289 765 289 771 0 4-36 9-79 11l-80 3-80-210zm-7341-210v-415h150v830h-150v-415zm383 395c-18-11-46-38-63-61-30-42-30-42-30-327s0-285 25-328c15-26 43-54 69-69 43-25 43-25 395-25h352l-3 78-3 77-340 5-340 5v248c0 209 2 249 15 257 9 6 154 10 343 10h327v150h-357c-338 0-360-1-390-20zm1882 2c-52-32-93-87-100-134-3-24-5-153-3-288 3-276 8-294 82-354l38-31 364-3 365-3-3 78-3 78-340 5-340 5-3 88-3 87h691v168c0 161-1 170-26 220-19 37-38 59-68 77-43 25-43 25-332 25-262 0-292-2-319-18zm573-140c9-6 12-33 10-98l-3-89-210-3c-115-2-234 0-262 3l-53 6v84c0 69 3 86 18 94 21 12 481 15 500 3zm2517 139c-49-30-86-76-96-117-4-22-9-152-9-290 0-242 1-252 23-294 12-24 40-57 61-74l38-31h606l39 31c21 17 48 48 60 70 21 38 22 47 20 319-2 280-2 280-30 321-15 22-45 50-66 62-37 21-50 22-327 22-265 0-292-2-319-19zm563-137c22-6 22-6 20-258l-3-251h-520l-3 244c-2 171 1 248 9 257 9 11 59 14 243 14 127 0 241-3 254-6zm-11185-651c20-2 37-8 37-13 0-4 12-8 28-7 15 1 55 0 90-1 62-2 62-2 62-41 0-30-4-40-20-44-12-3-20-14-20-26 0-14-6-21-20-21-12 0-20-7-21-17-3-49 4-99 14-105 7-4 1-11-16-17-31-12-37-47-9-54 12-3 10-5-7-6-24-1-24-1-18-121 6-110 5-120-11-120-14 0-12-4 8-20 25-20 25-20 2-38s-23-18-13-171c6-84 11-157 11-162s-9-9-19-9c-16 0-21 8-24 43l-4 42-1-41c-2-30 3-46 18-59 11-10 20-29 20-42 0-14 6-23 15-23 11 0 15-11 15-40 0-38-2-40-29-40-28 0-30 3-34 43-7 76-7-236 0-421 6-182 6-182 30-182 20 0 23-5 23-40 0-29-4-40-15-40-12 0-15-16-15-80 0-71 2-80 18-80s20-14 30-102c7-57 12-165 12-240 0-116 2-138 15-138 11 0 15-11 15-40 0-26-5-40-13-40s-12-14-12-40 4-40 12-40 13-14 13-40c0-22-4-40-10-40s-11-45-12-112c0-62-3-98-5-80-6 45-23 40-23-7 0-25 5-41 15-45 9-3 15-18 15-40 0-19 6-37 13-40 8-3 6-10-8-21-19-15-19-17-2-26 21-12 22-29 2-29-11 0-15-12-15-44 0-30 5-46 15-50 21-7 19-43-2-55-14-8 4-11 67-13 79-2 76-2-40-8-69-3 577-7 1435-9s1574-4 1590-5l30-1 3 1617c2 1617 2 1617-20 1621-23 4-23 4 0 6 12 0 22 6 22 11 0 7-551 9-1637 8-901-1-1621-3-1600-5zm177-43c0-5 7-7 15-4 8 4 15 8 15 10s-7 4-15 4-15-4-15-10zm-60-2670c0-22 5-40 10-40 6 0 10 18 10 40s-4 40-10 40c-5 0-10-18-10-40z"/></g></svg><svg xmlns="http://www.w3.org/2000/svg" width="2048" height="2048" version="1.0" viewBox="0 0 2048 2048"><g fill="#182635" transform="matrix(.1 0 0 -.1 0 2048)"><path d="M10010 11435v-75h150v150h-150v-75zm1250-475v-550h150v340h188l143-157c79-86 150-162 157-170 20-20 171-18 178 2 6 16-36 67-238 286-54 59-98 111-98 115 1 5 42 55 93 110 51 56 129 143 175 193 45 51 80 96 77 101-3 6-45 10-94 10h-87l-54-62c-98-110-233-253-249-263-9-6-55-9-103-7l-88 3v599h-150v-550zm1925 542c-20-3-20-9-17-478 3-539 1-527 84-581 41-28 44-28 225-31l183-3v75c0 54-4 76-12 77-7 1-83 4-168 8l-155 6v510l168 3 167 2v150l-167 2-168 3-3 127-3 126-57 4c-31 1-66 2-77 0zm1637-474c3-543 0-516 81-582 37-30 43-31 148-34l109-4v75c0 51-4 76-12 79-7 3-47 6-88 7-44 2-78 7-82 14s-8 218-8 470v457h-151l3-482zm-5952 337v-75h440v-880h150v388c0 213 3 411 6 440l7 52h427v150H8870v-75zm4920-440v-515h150l2 218 3 217 312 3c357 3 327-7 321 103l-3 54-318 3-318 2 3 138 3 137 393 3 392 2v150h-940v-515zm-3780-100v-415h150v830h-150v-415zm384 396c-18-11-45-36-60-57-29-37-29-37-29-335 0-334-4-317 79-383l38-31 359-3 359-3v76c0 41-1 76-2 77-2 1-156 4-343 7l-340 6-3 244c-2 171 1 248 9 257 9 11 74 14 340 14 329 0 329 0 334 23 4 13 5 46 3 73l-3 49-355 3c-335 2-357 1-386-17zm1891 3c-40-21-74-53-93-89-13-26-15-72-14-309 1-279 1-279 29-324 18-29 44-54 72-69 44-23 47-23 393-23h348v147l-67 6c-38 4-193 7-345 7h-278v180l343 2 342 3 3 155c3 174-4 213-50 266-56 64-57 64-370 64-237 0-288-3-313-16zm573-236 3-98h-531v94c0 66 4 96 13 99 6 3 125 5 262 4l250-2 3-97zm2517 240c-33-18-76-61-93-93-13-25-17-74-20-280-3-163 0-264 7-291 16-61 51-106 101-131 43-22 54-23 315-23s272 1 315 23c28 14 56 39 76 68 30 46 30 46 33 312 2 290-1 311-57 371-51 54-67 56-374 56-187-1-290-4-303-12zm573-400 2-258h-530v253c0 140 3 257 7 260 4 4 122 6 262 5l256-3 3-257zm222 406c0-9 83-225 196-509 48-121 95-240 104-265 18-45 18-45 81-45h64l130 303c71 166 132 302 136 302s18-28 32-62c14-35 65-148 112-253 48-104 97-214 109-243l21-53 65 3 65 3 71 190c39 105 107 288 152 407s82 219 82 222-36 6-79 6h-79l-40-102c-21-57-68-178-102-270-35-93-66-168-69-168-6 0-43 79-142 295-22 50-57 125-76 168l-36 78-89-3-89-3-70-160c-38-88-91-209-116-268s-50-104-54-100c-8 8-93 210-180 431l-41 102h-79c-43 0-79-3-79-6z"/></g></svg></g></svg>